<svg width="41" height="40" fill="none" xmlns="http://www.w3.org/2000/svg"><g clip-path="url(#clip0_169_15)" fill="#070707" stroke="#070707" stroke-width=".5"><path d="M34.32 0H5.96C2.72 0 .085 2.628.085 5.86v28.28C.085 37.372 2.72 40 5.96 40h28.36c3.24 0 5.876-2.629 5.876-5.86V5.86C40.196 2.627 37.56 0 34.32 0zm3.526 34.14a3.525 3.525 0 01-3.526 3.516H5.96a3.525 3.525 0 01-3.525-3.515V5.859A3.525 3.525 0 015.96 2.344h28.36a3.525 3.525 0 013.526 3.515v28.282z"/><path d="M18.965 16.484c0-2.585-2.108-4.687-4.7-4.687H7.214v16.406h7.05c2.593 0 4.701-2.102 4.701-4.687A4.67 4.67 0 0017.37 20a4.67 4.67 0 001.596-3.516zm-2.35 7.032a2.35 2.35 0 01-2.35 2.343h-4.7v-4.687h4.7a2.35 2.35 0 012.35 2.344zm-7.05-4.688v-4.687h4.7a2.35 2.35 0 012.35 2.343 2.35 2.35 0 01-2.35 2.344h-4.7zm17.626-2.344c-3.24 0-5.876 2.629-5.876 5.86 0 3.23 2.636 5.86 5.876 5.86a5.9 5.9 0 005.089-2.93l-2.035-1.173a3.53 3.53 0 01-6.378-.585h9.2v-1.172c0-3.231-2.636-5.86-5.876-5.86zm-3.324 4.688a3.53 3.53 0 016.648 0h-6.648zm-1.377-9.375h9.402v2.344H22.49v-2.344z"/></g><defs><clipPath id="clip0_169_15"><path fill="#fff" transform="translate(.085)" d="M0 0h40.111v40H0z"/></clipPath></defs></svg>